<?xml version="1.0" encoding="UTF-8"?>
<svg id="Capa_1" xmlns="http://www.w3.org/2000/svg" version="1.1" viewBox="0 0 1080 352.3">
  <!-- Generator: Adobe Illustrator 29.0.0, SVG Export Plug-In . SVG Version: 2.1.0 Build 186)  -->
  <defs>
    <style>
      .st0 {
        fill: #fff;
      }
    </style>
  </defs>
  <g>
    <path class="st0" d="M707.4,36.8c6,0,12.1-.4,18,0,11.4.9,22.9,2,33,8.5,11.8,7.6,13.4,19.6,4.4,29.9-4,4.5-8.7,8.2-13.9,11.1-1.9,1.1-2,2.1-1,3.6,2.4,3.6,4.5,7.5,7.3,10.9,13.2,15.6,27.8,29.9,42.8,43.7,14.2,13.1,30.9,23,49.8,28.3,5.3,1.5,10.9,2.5,16.6,2.5s3.6-.9,3.5,1.7c0,2.4-2.1,1.2-3.3,1.5-5.7,1.5-11.6,1.1-17.4,1.1-12.5,0-24.5-3.1-36-7.7-15.7-6.4-29.5-15.7-42.4-26.8-9.6-8.2-18-17.4-27-26.3-3.6-3.5-7.8-6.2-11.1-9.9-4.6-5.2-9.1-10.4-13.6-15.8-1-1.2-2.4-2.9-1.6-4.6.8-1.8,2.8-.9,4.2-.9,14.9-.2,23.5-16.7,19.5-28.4-2.1-6.2-4.9-11.3-11.1-14.1-1-.5-2.1-.7-3.2-.9-4.1-.8-5.6,1.3-6.4,4.9-3.1,13.9-4.9,27.8-5.7,42-.6,9.7.3,19.1,1.5,28.6.7,5.2,2.7,10.2,7.3,13.6.9.6,1.7,1.6,1.3,2.9-.5,1.6-1.9,1-2.9,1-11.4,0-22.9,0-34.3.1-3.1,0-3.6-1.1-1.9-3.5,5.6-7.9,6.2-17.2,7.8-26.3,1.8-10.3,2.2-20.7,3-31,.7-9.7,1.4-19.7-1-29.3-.8-3.2-3.3-5.6-6.3-7.2-1-.5-2.3-.3-2.2-1.9.2-2,1.9-1.4,3-1.4,6.5,0,12.9,0,19.3,0Z"/>
    <path class="st0" d="M125,94.4c-.2-14.6,4.6-27.2,15.6-36.8,11.6-10.1,24.8-18,40-20.6,10.2-1.7,21.1-1,30.2,5.3,6.6,4.5,11.7,10.8,14.6,18.4,2.9,7.6,5,15.4,4.8,23.8-.2,10.1-4.2,18.6-10.6,25.9-7.9,9.2-17.2,16.9-28.1,22.3-11.6,5.8-23.8,8-37.1,6.1-15.8-2.2-27-19.7-28.4-32.7-.4-3.8-.9-7.7-1-11.7ZM151.1,86.5c.1,10.2,2.6,18.4,9.2,24.8,5.6,5.4,12.6,8.4,20.2,9.8,7.7,1.4,16.6-2.8,20-9.8,3.4-7.2,4.4-14.7,2.8-22.9-2.5-13.5-7.9-25.1-19.1-32.9-7.4-5.2-15.6-7.2-22.6.7-8.1,8.9-9.7,20-10.5,30.3Z"/>
    <path class="st0" d="M881.1,94.4c-.6-15.2,5.1-27.9,16.5-37.8,8.7-7.5,18.9-12.7,29.6-17,10.1-4,20.3-3.8,30.3-1.3,12.2,3.1,19.5,12,24.1,23.2,3,7.5,4.6,15.2,4.5,23.5-.2,10-4.4,18.2-10.5,25.5-7.7,9.2-17.1,16.6-27.7,22.2-12.9,6.8-26.8,9.5-40.9,5.6-11.3-3.1-18.4-11.7-22.6-22.7-2.6-6.9-3.5-13.9-3.3-21.2ZM906.8,88.7c-.6,1.9.4,5.1,1.3,8.2,1.6,5.6,3.9,11,8.4,14.9,5.6,4.8,12.3,7.8,19.6,9.3,7.5,1.6,16.7-2.6,20.1-9.5,3.6-7.4,4.7-14.9,3.1-23.2-2.7-13.4-8.3-24.6-19.1-33.1-8.2-6.5-20.4-4.7-25.6,4.3-5,8.4-7.2,17.8-7.8,29.1Z"/>
    <path class="st0" d="M301.6,36.8c6.9-.2,13.4.7,19.7,3.9,8.5,4.4,14,11.3,17.7,19.8,3.3,7.9,5,16,4.9,24.6-.2,10-4.5,18.2-10.6,25.5-7.7,9.2-17.2,16.6-27.8,22.1-11.6,6-23.9,8.4-37.3,6.1-17-2.9-26.7-19.6-28.4-32.8-1-7.7-1.3-15.2.1-22.8,2.1-11.5,8.1-20.6,17-27.8,8.7-7.1,18.7-12.1,29-16.3,5-2.1,10.3-2.6,15.7-2.3ZM318,95.1c-.5-9.1-3-18.3-8-26.5-4.3-7-9.4-13.5-18-16.3-7.1-2.3-12.9-1.2-17.6,4.6-6.4,7.9-8.8,17.4-9.5,27-1.3,18.4,7.1,30.3,24.1,35.8,9.3,3,18.3,1.1,23.4-5.8,4-5.2,5.5-11.5,5.6-18.8Z"/>
    <path class="st0" d="M358,101c0-15.9-.3-31.7.1-47.6.3-9.4-5.5-12-12.1-13.4-1.3-.3-3.2.6-3.1-1.8.1-2.4,2.1-1.4,3.3-1.4,23.9,0,47.8-.9,71.6.2,16.5.8,30.1,9.3,35.1,27.7,2,7.1.1,14.5-5.4,20.4-8.6,9.4-19.7,14.1-31.5,17.9-9.5,3-19.2,4.4-29.1,4-2.5,0-3.1.8-3.1,3.2.1,10.7,0,21.4.1,32.2,0,2.8-.5,4.2-3.6,5.1-6.2,1.8-12.1,4.4-18.1,6.8-3.1,1.2-4.3.6-4.3-3,.2-16.8.1-33.5.1-50.3ZM383.9,73.4v21c0,1.1-.6,2.6,1.5,3,8.8,1.8,17.5,3.9,26.4,0,8.8-3.9,16.7-11.7,15.3-21.9-1.5-11.1-8.3-18.2-18.2-22.4-7-2.9-14.3-4-22-3.5-2.5,0-3.1.9-3.1,3.2.2,6.8.1,13.7.1,20.6Z"/>
    <path class="st0" d="M537.7,124.6c-7.5,4.5-13.5,9.7-21.3,12.2-12.4,3.9-23.8.2-32.8-9.1-5.9-6.1-11.2-12.6-15.7-19.7-6.3-10-8.3-21-3.3-32.5,2.1-4.9,3.3-10.2,6.5-14.6,6-8.3,11.6-17.1,21.7-21.3,1.2-.5,2.4-1.7,3.3-.3.8,1.1.4,2.6-.3,4-3,7.1-7.9,13.2-10.6,20.4-2,5.2-3.7,10.8-3.8,16.2-.1,8.6,3.5,16.3,9.1,22.9,6.1,7.1,13.2,12.9,21.2,17.8,5.4,3.3,11.4,4.1,17.6,2.6,4.2-1.1,8.3-7.1,8.3-11.5v-55.8c0-8.8-3.9-13.9-12.3-16-1.2-.3-2.9.3-2.8-1.7,0-2.4,2.1-1.5,3.3-1.5,10.2,0,20.3,0,30.5,0,2.1,0,3.1.5,3,2.8-.9,15.3,1.1,30.4,1.1,45.7v36.5c0,3.7,1.6,6.4,4.7,8.3,2.8,1.8,5.1,4.3,8.8,4.6,1.4.1,2,1.5,1.6,3-.4,1.4-1.6,1.2-2.5.9-10.6-2.7-21.4-2.2-32.1-2.1-2.3,0-3.4-.6-3.2-3.1,0-2.6,0-5.3,0-8.6Z"/>
    <path class="st0" d="M626.7,137.5c-15.9.3-28.5-4.6-39.3-14.6-4-3.7-5.1-8.5-6.3-13.1-1.8-7.1-2.6-14.4-2.3-21.8.7-17.7,8.8-30.7,23.8-39.9,9.9-6,20.5-9,32-10.5,13.2-1.7,26.2-.8,39.2,1.3,2.4.4,3.4,2.3,1.6,4.5-4.5,5.4-7.4,11.6-10.3,17.8-.5,1.1-.8,2.7-2.9,2.6-1.9,0-2.7-1-3.4-2.6-3.1-6.9-8.1-12-15.1-14.8-8-3.2-14.3,1-20,5.7-4.8,4-8,9.4-10.9,15-1.3,2.6-.8,4,1.7,5.4,5.2,2.9,10.9,4.4,16.7,5.3,7.6,1.3,15.3,2.4,23.1,2.2,1.2,0,2.3,0,2.4,1.7,0,1.9-1.3,1.5-2.4,1.5-9.1,0-17.5,3.5-26.4,4.8-6,.9-12,2.1-18.1,1.8-3.6-.2-4.6.5-3.4,4.6,5,17.7,17.7,25.6,34.6,29.1,9.2,1.9,17.6.8,25.4-4.4.7-.5,1.5-.9,2.3-1,1,0,2.4-.7,2.9.8.4,1.3-.2,2.2-1.2,2.9-2.9,1.9-5.8,4-8.9,5.7-11.1,6-22.9,10.5-34.8,10Z"/>
    <path class="st0" d="M1040.8,36.8c8.7-.6,17.2.8,25.8,2.1,2.5.4,4.8,1.7,6.7,3.4,2.3,2,1.9,4.3.6,6.9-3,5.7-9.1,8.1-12.9,12.8-1,1.2-2.4,1-3.6.6-1.3-.4-1-1.7-.8-2.6.4-3.2-1-4.3-4-5.2-10.6-3.4-21.5-2.9-32.4-2.7-3.7,0-4.1,3.7-4.7,6.2-.8,3.4,1.2,6,4.2,7.6,7.3,3.9,15.2,6.6,22.9,9.6,8.6,3.3,16.8,7.3,24,13,5.4,4.2,9.3,15.9,7,22.1-1,2.7-3.4,4.6-5.8,6.1-6,3.6-11.3,8-16.1,13.1-4.9,5.2-10.9,7.6-18,7.7-8.1.1-16.1-.2-24-2.2-6.1-1.6-11.4-4.8-16.1-8.8-1.5-1.3-1.2-3.2.2-4.6,4.2-4.3,8.5-8.5,12.7-12.8,1.1-1.1,2.3-1.1,3.5-.8,1.4.3,1.1,1.5,1,2.5-.2,2.4,1.1,3.6,3.1,4.4,11.5,4.5,23.2,7.7,35.8,4.9,4.1-.9,4.8-3.1,4.2-7.2-1.3-8.9-7.7-12.5-14.8-15.3-11.4-4.6-23.1-8.7-34.4-13.7-6.4-2.8-9.1-4.3-9-13.5.3-15.1-2.1-11.8,11.4-18.8,4.6-2.4,8.6-5.9,12.6-9.2,4.3-3.6,8.6-6.5,14.5-5.6,2.1.2,4.3,0,6.4,0Z"/>
    <path class="st0" d="M66.6,36.8c9.5-.5,18.2.8,26.9,1.9,2.8.3,2.6,2.1,2,3.6-3.1,8-6.4,15.8-9.6,23.8-.6,1.6-1.8,2-3.4,2s-1.6-1.5-2.1-2.6c-4.3-9-10.6-16-20.3-19.1-6.4-2.1-14.5,1.3-18.4,7.2-6.7,10.3-9.4,21.7-8.7,33.7.4,6.6,4,12.2,7.8,17.5,7.8,10.9,18.5,17.3,31.2,20.1,7.8,1.7,15.6,2.4,23.8.9,7.8-1.5,15.7-2.5,23.2-5.5,1.1-.4,2.4-.5,2.6,1.2,0,1.2.2,2.2-1.5,3-10.9,5.1-22.2,9.6-34.1,11.5-10.9,1.8-21.9,2.2-33,.5-8.7-1.4-17-3.6-24.7-7.8-11.3-6.4-20-15-22.3-28.7-3.3-19.7,1.4-37,16.3-50.7,6.3-5.8,14.3-8.9,22.7-10.6,7.4-1.4,14.8-2.5,21.6-1.9Z"/>
    <path class="st0" d="M827,139.6h-22.7c-1.2,0-3.1.9-3.4-1.4-.3-2,1.5-1.6,2.6-2,8.5-3.4,12.5-9.9,13.7-18.8,2.2-15.3.4-30.8,1.1-46.1,0-1.4-.2-2.8.5-4.2,1.9-3.6-.3-5.1-3.4-5.4-6.8-.5-13.6-.4-19.3,4.4-.3.3-.9.4-1,.7-.8,2.2-2.6,3.5-4.4,2-1.7-1.5,0-3.4.9-5.2,2.6-5.8,3.7-12.1,3.8-18.4,0-3.5,1.2-4.3,4.4-4.2,10.7.5,21.3,1.3,32,3.1,5.4.9,10.9,1.6,16.3,2,4.5.4,8.9,1.4,13.4,1.5,10.3.2,20.2-1.7,29.9-4.8,1.6-.5,3.5-1.8,4.5,0,1.1,2.1-1.1,3.3-2.5,4.3-7,5.3-15.4,7.4-23.6,9.8-6.5,2-13.4,2.7-20.2,3.4-1.9.2-2.9,1-3.2,2.8-1.7,8.8-3.9,17.5-4.6,26.5-.6,7.1-1,14.2-.6,21.2.5,8.4,1.6,16.9,8.1,23.3.7.7,1.4,1.6,2.3,1.8,1.3.3,2.7.3,2.3,2.2s-2,1.2-3.2,1.2c-8,.2-15.8.2-23.7.2h0Z"/>
    <path class="st0" d="M366.4,206.9c127.1-2.8,254,20.9,381,8.3,75-6.8,150.1-15.4,223-34.6,12.4-2.8,24.7-6.2,37.2-8.5,19.4-1.9,39.2-.8,58.7-1.8,3-.1,4.5.7,4.5,4,0,10.9.2,21.7,0,32.6,0,6.4-.8,6.9-7,8.1-122.2,22.6-246.1,42.3-370.7,40.3-135.2-1.2-267.7-29.9-401.5-46-1.3-.2-3.5.6-3.5-1.4.1-2,2.3-1.1,3.5-1.1,24.9.2,49.8.2,74.7,0q0,.1,0,0Z"/>
    <path class="st0" d="M179.8,214.4c-8.3-2.4-16.6-4.7-25-6.9,5.6,3.5,10.9,7.3,17,9.8,89.7,43.4,186.5,69.9,284.8,84.8,46.6,8,93.3,15.7,140,22.9,18.2,5,44-21.8,27.1-24.3-150.7-12.9-298.7-44-443.9-86.3Z"/>
    <path class="st0" d="M1073,270.2c-.2-8.4,0-16.9,0-25.3,0-14,.6-13-13.5-11.1-16.3,2.2-32.5,4.9-48.7,7.3-22,3.3-44.1,6.4-66.1,9.8-23.7,3.7-47.4,7.7-71.3,9.7-33.1,2.8-66.2,4.4-99.4,5.1-30.5.6-60.9.2-91.4-.7-31.7-1-63.4-2.9-95-5.2-16.2-1.2-32.5-2.7-48.7-4.4-24-2.6-48-5.3-71.9-8.3-21.8-2.7-43.6-5.8-65.3-8.9-21.6-3.1-43-7.7-64.4-11.8-29.7-5.7-59.5-10.9-89.1-17.3-20.7-4.5-41.5-2.3-62.3-2.6.4.2.7.4,1.1.5,14.6,3.9,29.2,7.9,43.9,11.7,35.3,9.3,70.5,19.3,106.1,27.6,36.7,8.5,73.7,15.5,110.8,22,17.3,3,34.6,5.9,52,8.2,21.6,2.8,43.3,5.6,65.1,7.3,27.6,2.2,55.2,5,82.8,7.3,24.1,2,48.2,3.8,72.2,5.5,12.7.9,25.4,1.3,38.1,1.8,25.2,1.1,50.3,1.9,75.5,1.1,24.8-.8,49.7-2.4,74.5-3.9,14.8-.9,29.7-2,44.5-3.2,20.1-1.7,40.1-3.6,60.1-6.3,18.8-2.5,37.6-5.3,56.1-9.8,3.4-.9,4.5-2.7,4.4-6.1Z"/>
  </g>
  <g>
    <path class="st0" d="M296.4,168.4h14.6v5h-4.8v21.5h-5.1v-21.5h-4.7v-5Z"/>
    <path class="st0" d="M314.8,168.4h5.3c2.9,0,5,.3,6.3.8,1.2.5,2.2,1.4,3,2.6.8,1.2,1.1,2.6,1.1,4.3s-.4,3.2-1.3,4.4c-.8,1.2-2.1,2.1-3.8,2.7l6.3,11.8h-5.5l-6-11.2h-.5v11.2h-5v-26.6h.1ZM319.9,178.8h1.6c1.6,0,2.7-.2,3.3-.6.6-.4.9-1.1.9-2.1s-.1-1.1-.4-1.5-.7-.7-1.2-.9-1.4-.3-2.8-.3h-1.4v5.4Z"/>
    <path class="st0" d="M344,168.4h5.1l10.2,26.5h-5.2l-2.1-5.5h-10.8l-2.2,5.5h-5.2l10.2-26.5ZM346.6,175.4l-3.6,9.1h7.1l-3.5-9.1Z"/>
    <path class="st0" d="M363.3,168.4h4.8l11.3,17.5v-17.5h5v26.5h-4.9l-11.3-17.4v17.4h-5v-26.5h.1Z"/>
    <path class="st0" d="M404.5,172l-3.7,3.3c-1.3-1.8-2.6-2.7-4-2.7s-1.2.2-1.6.5c-.4.4-.6.8-.6,1.2s.2.9.5,1.3c.4.5,1.6,1.7,3.7,3.4,1.9,1.6,3.1,2.6,3.5,3,1,1,1.7,2,2.2,3,.4.9.6,2,.6,3.1,0,2.2-.8,4-2.3,5.4s-3.5,2.1-5.9,2.1-3.5-.5-4.9-1.4-2.6-2.4-3.6-4.4l4.2-2.6c1.3,2.3,2.7,3.5,4.4,3.5s1.6-.3,2.2-.8.9-1.1.9-1.7-.2-1.2-.7-1.8c-.4-.6-1.4-1.5-2.9-2.8-2.9-2.4-4.8-4.2-5.6-5.5-.8-1.3-1.3-2.6-1.3-3.8,0-1.8.7-3.4,2.1-4.7s3.1-2,5.2-2,2.6.3,3.8.9c1.1.8,2.4,1.9,3.8,3.5Z"/>
    <path class="st0" d="M409.7,168.4h5.4c2.9,0,5,.3,6.3.8s2.3,1.4,3,2.6c.7,1.2,1.1,2.6,1.1,4.3s-.5,3.4-1.5,4.6c-1,1.2-2.3,2.1-3.9,2.6-1,.3-2.7.4-5.3.4v11.2h-5v-26.5h-.1ZM414.8,178.8h1.6c1.3,0,2.1-.1,2.6-.3s.9-.5,1.2-.9c.3-.4.4-.9.4-1.5,0-1-.4-1.8-1.2-2.2-.6-.3-1.6-.5-3.2-.5h-1.4v5.4Z"/>
    <path class="st0" d="M443,167.7c3.8,0,7,1.4,9.7,4.1s4.1,6,4.1,9.9-1.3,7.1-4,9.8-5.9,4-9.7,4-7.3-1.4-9.9-4.1c-2.6-2.8-4-6-4-9.8s.6-4.9,1.8-7,2.9-3.8,5.1-5.1c2.1-1.2,4.4-1.8,6.9-1.8ZM442.9,172.7c-2.5,0-4.5.9-6.2,2.6-1.7,1.7-2.5,3.9-2.5,6.5s1.1,5.3,3.2,7c1.6,1.3,3.5,2,5.6,2s4.4-.9,6.1-2.6c1.7-1.7,2.5-3.9,2.5-6.4s-.8-4.7-2.5-6.4c-1.7-1.9-3.8-2.7-6.2-2.7Z"/>
    <path class="st0" d="M461.8,168.4h5.3c2.9,0,5,.3,6.3.8,1.2.5,2.2,1.4,3,2.6.8,1.2,1.1,2.6,1.1,4.3s-.4,3.2-1.3,4.4c-.8,1.2-2.1,2.1-3.8,2.7l6.3,11.8h-5.5l-6-11.2h-.5v11.2h-5v-26.6h.1ZM466.8,178.8h1.6c1.6,0,2.7-.2,3.3-.6.6-.4.9-1.1.9-2.1s-.1-1.1-.4-1.5-.7-.7-1.2-.9-1.4-.3-2.8-.3h-1.4v5.4Z"/>
    <path class="st0" d="M480.3,168.4h14.7v5h-4.8v21.5h-5.2v-21.5h-4.7v-5Z"/>
    <path class="st0" d="M498.4,168.4h14.5v4.9h-9.5v4.8h9.5v4.8h-9.5v7h9.5v5h-14.5v-26.5h0Z"/>
    <path class="st0" d="M552.3,173l-3.5,3.4c-2.4-2.5-5.1-3.8-8.1-3.8s-4.7.9-6.4,2.6c-1.7,1.7-2.6,3.9-2.6,6.4s.4,3.3,1.2,4.7,1.9,2.4,3.3,3.2c1.4.8,3,1.2,4.7,1.2s2.8-.3,4-.8,2.5-1.5,4-3l3.4,3.6c-2,1.9-3.8,3.2-5.6,4-1.7.7-3.7,1.1-6,1.1-4.1,0-7.5-1.3-10.1-3.9-2.6-2.6-3.9-6-3.9-10.1s.6-5,1.8-7c1.2-2.1,2.9-3.7,5.1-5,2.2-1.3,4.6-1.9,7.2-1.9s4.3.5,6.3,1.4c2,.9,3.7,2.2,5.2,3.9Z"/>
    <path class="st0" d="M569.2,167.7c3.8,0,7,1.4,9.7,4.1,2.7,2.7,4.1,6,4.1,9.9s-1.3,7.1-4,9.8-5.9,4-9.7,4-7.3-1.4-9.9-4.1-4-6-4-9.8.6-4.9,1.8-7,2.9-3.8,5.1-5.1c2.1-1.2,4.4-1.8,6.9-1.8ZM569.2,172.7c-2.5,0-4.5.9-6.2,2.6-1.7,1.7-2.5,3.9-2.5,6.5s1.1,5.3,3.2,7c1.6,1.3,3.5,2,5.6,2s4.4-.9,6.1-2.6c1.7-1.7,2.5-3.9,2.5-6.4s-.8-4.7-2.5-6.4c-1.7-1.9-3.8-2.7-6.2-2.7Z"/>
    <path class="st0" d="M587.7,168.4h4.8l11.3,17.5v-17.5h5v26.5h-4.9l-11.3-17.4v17.4h-5v-26.5h.1Z"/>
    <path class="st0" d="M649.7,173l-3.5,3.4c-2.4-2.5-5.1-3.8-8.1-3.8s-4.7.9-6.4,2.6c-1.7,1.7-2.6,3.9-2.6,6.4s.4,3.3,1.2,4.7,1.9,2.4,3.3,3.2c1.4.8,3,1.2,4.7,1.2s2.8-.3,4-.8,2.5-1.5,4-3l3.4,3.6c-2,1.9-3.8,3.2-5.6,4-1.7.7-3.7,1.1-6,1.1-4.1,0-7.5-1.3-10.1-3.9-2.6-2.6-3.9-6-3.9-10.1s.6-5,1.8-7c1.2-2.1,2.9-3.7,5.1-5,2.2-1.3,4.6-1.9,7.2-1.9s4.3.5,6.3,1.4c2,.9,3.8,2.2,5.2,3.9Z"/>
    <path class="st0" d="M662.2,168.4h5.1l10.2,26.5h-5.2l-2.1-5.5h-10.8l-2.2,5.5h-5.2l10.2-26.5ZM664.8,175.4l-3.6,9.1h7.1l-3.5-9.1Z"/>
    <path class="st0" d="M681.5,168.4h5v21.7h7.4v4.8h-12.4v-26.5Z"/>
    <path class="st0" d="M697.3,168.4h5v26.5h-5v-26.5Z"/>
    <path class="st0" d="M708.1,168.4h6c3.9,0,6.7.5,8.6,1.4,1.9,1,3.4,2.5,4.6,4.7,1.2,2.2,1.8,4.7,1.8,7.5s-.3,3.9-1,5.6c-.7,1.7-1.6,3.1-2.8,4.3-1.2,1.1-2.5,1.9-3.9,2.3s-3.8.6-7.2.6h-6.1v-26.4h0ZM713.1,173.3v16.7h2.3c2.3,0,4-.3,5-.8s1.9-1.4,2.6-2.7c.7-1.3,1-2.8,1-4.6,0-2.8-.8-5-2.4-6.6-1.4-1.4-3.7-2.1-6.8-2.1h-1.7Z"/>
    <path class="st0" d="M742,168.4h5.1l10.2,26.5h-5.2l-2.1-5.5h-10.8l-2.2,5.5h-5.2l10.2-26.5ZM744.6,175.4l-3.6,9.1h7.1l-3.5-9.1Z"/>
    <path class="st0" d="M761.2,168.4h6c3.9,0,6.7.5,8.6,1.4,1.9,1,3.4,2.5,4.6,4.7,1.2,2.2,1.8,4.7,1.8,7.5s-.3,3.9-1,5.6c-.7,1.7-1.6,3.1-2.8,4.3-1.2,1.1-2.5,1.9-3.9,2.3s-3.8.6-7.2.6h-6.1v-26.4h0ZM766.2,173.3v16.7h2.3c2.3,0,4-.3,5-.8s1.9-1.4,2.6-2.7c.7-1.3,1-2.8,1-4.6,0-2.8-.8-5-2.4-6.6-1.4-1.4-3.7-2.1-6.8-2.1h-1.7Z"/>
  </g>
</svg>