<?xml version="1.0" encoding="utf-8"?>
<!-- Generator: Adobe Illustrator 28.0.0, SVG Export Plug-In . SVG Version: 6.00 Build 0)  -->
<svg version="1.1" id="Capa_1" xmlns="http://www.w3.org/2000/svg" xmlns:xlink="http://www.w3.org/1999/xlink" x="0px" y="0px"
	 viewBox="0 0 1080 352.3" style="enable-background:new 0 0 1080 352.3;" xml:space="preserve">
<style type="text/css">
	.st0{fill:#19391D;}
	.st1{fill:#BE1818;}
	.st2{fill:#EAB608;}
	.st3{fill:#020203;}
</style>
<g>
	<g>
		<path class="st0" d="M707.4,36.8c6,0,12.1-0.4,18,0.1c11.4,0.9,22.9,2,33,8.5c11.8,7.6,13.4,19.6,4.4,29.9
			c-4,4.5-8.7,8.2-13.9,11.1c-1.9,1.1-2,2.1-1,3.6c2.4,3.6,4.5,7.5,7.3,10.9c13.2,15.6,27.8,29.9,42.8,43.7
			c14.2,13.1,30.9,23,49.8,28.3c5.3,1.5,10.9,2.5,16.6,2.5c1.3,0,3.6-0.9,3.5,1.7c0,2.4-2.1,1.2-3.3,1.5c-5.7,1.5-11.6,1.1-17.4,1.1
			c-12.5,0-24.5-3.1-36-7.7c-15.7-6.4-29.5-15.7-42.4-26.8c-9.6-8.2-18-17.4-27-26.3c-3.6-3.5-7.8-6.2-11.1-9.9
			c-4.6-5.2-9.1-10.4-13.6-15.8c-1-1.2-2.4-2.9-1.6-4.6c0.8-1.8,2.8-0.9,4.2-0.9c14.9-0.2,23.5-16.7,19.5-28.4
			c-2.1-6.2-4.9-11.3-11.1-14.1c-1-0.5-2.1-0.7-3.2-0.9c-4.1-0.8-5.6,1.3-6.4,4.9c-3.1,13.9-4.9,27.8-5.7,42
			c-0.6,9.7,0.3,19.1,1.5,28.6c0.7,5.2,2.7,10.2,7.3,13.6c0.9,0.6,1.7,1.6,1.3,2.9c-0.5,1.6-1.9,1-2.9,1c-11.4,0-22.9,0-34.3,0.1
			c-3.1,0-3.6-1.1-1.9-3.5c5.6-7.9,6.2-17.2,7.8-26.3c1.8-10.3,2.2-20.7,3-31c0.7-9.7,1.4-19.7-1-29.3c-0.8-3.2-3.3-5.6-6.3-7.2
			c-1-0.5-2.3-0.3-2.2-1.9c0.2-2,1.9-1.4,3-1.4C694.6,36.7,701,36.8,707.4,36.8z"/>
		<path class="st0" d="M125,94.4c-0.2-14.6,4.6-27.2,15.6-36.8c11.6-10.1,24.8-18,40-20.6c10.2-1.7,21.1-1,30.2,5.3
			c6.6,4.5,11.7,10.8,14.6,18.4c2.9,7.6,5,15.4,4.8,23.8c-0.2,10.1-4.2,18.6-10.6,25.9c-7.9,9.2-17.2,16.9-28.1,22.3
			c-11.6,5.8-23.8,8-37.1,6.1c-15.8-2.2-27-19.7-28.4-32.7C125.6,102.3,125.1,98.4,125,94.4z M151.1,86.5
			c0.1,10.2,2.6,18.4,9.2,24.8c5.6,5.4,12.6,8.4,20.2,9.8c7.7,1.4,16.6-2.8,20-9.8c3.4-7.2,4.4-14.7,2.8-22.9
			c-2.5-13.5-7.9-25.1-19.1-32.9c-7.4-5.2-15.6-7.2-22.6,0.7C153.5,65.1,151.9,76.2,151.1,86.5z"/>
		<path class="st0" d="M881.1,94.4c-0.6-15.2,5.1-27.9,16.5-37.8c8.7-7.5,18.9-12.7,29.6-17c10.1-4,20.3-3.8,30.3-1.3
			c12.2,3.1,19.5,12,24.1,23.2c3,7.5,4.6,15.2,4.5,23.5c-0.2,10-4.4,18.2-10.5,25.5c-7.7,9.2-17.1,16.6-27.7,22.2
			c-12.9,6.8-26.8,9.5-40.9,5.6c-11.3-3.1-18.4-11.7-22.6-22.7C881.8,108.7,880.9,101.7,881.1,94.4z M906.8,88.7
			c-0.6,1.9,0.4,5.1,1.3,8.2c1.6,5.6,3.9,11,8.4,14.9c5.6,4.8,12.3,7.8,19.6,9.3c7.5,1.6,16.7-2.6,20.1-9.5
			c3.6-7.4,4.7-14.9,3.1-23.2c-2.7-13.4-8.3-24.6-19.1-33.1c-8.2-6.5-20.4-4.7-25.6,4.3C909.6,68,907.4,77.4,906.8,88.7z"/>
		<path class="st0" d="M301.6,36.8c6.9-0.2,13.4,0.7,19.7,3.9c8.5,4.4,14,11.3,17.7,19.8c3.3,7.9,5,16,4.9,24.6
			c-0.2,10-4.5,18.2-10.6,25.5c-7.7,9.2-17.2,16.6-27.8,22.1c-11.6,6-23.9,8.4-37.3,6.1c-17-2.9-26.7-19.6-28.4-32.8
			c-1-7.7-1.3-15.2,0.1-22.8c2.1-11.5,8.1-20.6,17-27.8c8.7-7.1,18.7-12.1,29-16.3C290.9,37,296.2,36.5,301.6,36.8z M318,95.1
			c-0.5-9.1-3-18.3-8-26.5c-4.3-7-9.4-13.5-18-16.3c-7.1-2.3-12.9-1.2-17.6,4.6c-6.4,7.9-8.8,17.4-9.5,27
			c-1.3,18.4,7.1,30.3,24.1,35.8c9.3,3,18.3,1.1,23.4-5.8C316.4,108.7,317.9,102.4,318,95.1z"/>
		<path class="st0" d="M358,101c0-15.9-0.3-31.7,0.1-47.6c0.3-9.4-5.5-12-12.1-13.4c-1.3-0.3-3.2,0.6-3.1-1.8
			c0.1-2.4,2.1-1.4,3.3-1.4c23.9-0.1,47.8-0.9,71.6,0.2c16.5,0.8,30.1,9.3,35.1,27.7c2,7.1,0.1,14.5-5.4,20.4
			c-8.6,9.4-19.7,14.1-31.5,17.9c-9.5,3-19.2,4.4-29.1,4c-2.5-0.1-3.1,0.8-3.1,3.2c0.1,10.7,0,21.4,0.1,32.2c0,2.8-0.5,4.2-3.6,5.1
			c-6.2,1.8-12.1,4.4-18.1,6.8c-3.1,1.2-4.3,0.6-4.3-3C358.1,134.5,358,117.8,358,101z M383.9,73.4c0,7,0,14,0,21
			c0,1.1-0.6,2.6,1.5,3c8.8,1.8,17.5,3.9,26.4,0c8.8-3.9,16.7-11.7,15.3-21.9c-1.5-11.1-8.3-18.2-18.2-22.4c-7-2.9-14.3-4-22-3.5
			c-2.5,0.1-3.1,0.9-3.1,3.2C384,59.6,383.9,66.5,383.9,73.4z"/>
		<path class="st0" d="M537.7,124.6c-7.5,4.5-13.5,9.7-21.3,12.2c-12.4,3.9-23.8,0.2-32.8-9.1c-5.9-6.1-11.2-12.6-15.7-19.7
			c-6.3-10-8.3-21-3.3-32.5c2.1-4.9,3.3-10.2,6.5-14.6c6-8.3,11.6-17.1,21.7-21.3c1.2-0.5,2.4-1.7,3.3-0.3c0.8,1.1,0.4,2.6-0.3,4
			c-3,7.1-7.9,13.2-10.6,20.4c-2,5.2-3.7,10.8-3.8,16.2c-0.1,8.6,3.5,16.3,9.1,22.9c6.1,7.1,13.2,12.9,21.2,17.8
			c5.4,3.3,11.4,4.1,17.6,2.6c4.2-1.1,8.3-7.1,8.3-11.5c0-18.6,0-37.2,0-55.8c0-8.8-3.9-13.9-12.3-16c-1.2-0.3-2.9,0.3-2.8-1.7
			c0.1-2.4,2.1-1.5,3.3-1.5c10.2-0.1,20.3,0,30.5-0.1c2.1,0,3.1,0.5,3,2.8c-0.9,15.3,1.1,30.4,1.1,45.7c0,12.2,0,24.3,0,36.5
			c0,3.7,1.6,6.4,4.7,8.3c2.8,1.8,5.1,4.3,8.8,4.6c1.4,0.1,2,1.5,1.6,3c-0.4,1.4-1.6,1.2-2.5,0.9c-10.6-2.7-21.4-2.2-32.1-2.1
			c-2.3,0-3.4-0.6-3.2-3.1C537.8,130.6,537.7,127.9,537.7,124.6z"/>
		<path class="st0" d="M626.7,137.5c-15.9,0.3-28.5-4.6-39.3-14.6c-4-3.7-5.1-8.5-6.3-13.1c-1.8-7.1-2.6-14.4-2.3-21.8
			c0.7-17.7,8.8-30.7,23.8-39.9c9.9-6,20.5-9,32-10.5c13.2-1.7,26.2-0.8,39.2,1.3c2.4,0.4,3.4,2.3,1.6,4.5
			c-4.5,5.4-7.4,11.6-10.3,17.8c-0.5,1.1-0.8,2.7-2.9,2.6c-1.9-0.1-2.7-1-3.4-2.6c-3.1-6.9-8.1-12-15.1-14.8c-8-3.2-14.3,1-20,5.7
			c-4.8,4-8,9.4-10.9,15c-1.3,2.6-0.8,4,1.7,5.4c5.2,2.9,10.9,4.4,16.7,5.3c7.6,1.3,15.3,2.4,23.1,2.2c1.2,0,2.3,0,2.4,1.7
			c0,1.9-1.3,1.5-2.4,1.5c-9.1,0-17.5,3.5-26.4,4.8c-6,0.9-12,2.1-18.1,1.8c-3.6-0.2-4.6,0.5-3.4,4.6c5,17.7,17.7,25.6,34.6,29.1
			c9.2,1.9,17.6,0.8,25.4-4.4c0.7-0.5,1.5-0.9,2.3-1c1-0.1,2.4-0.7,2.9,0.8c0.4,1.3-0.2,2.2-1.2,2.9c-2.9,1.9-5.8,4-8.9,5.7
			C650.4,133.5,638.6,138,626.7,137.5z"/>
		<path class="st0" d="M1040.8,36.8c8.7-0.6,17.2,0.8,25.8,2.1c2.5,0.4,4.8,1.7,6.7,3.4c2.3,2,1.9,4.3,0.6,6.9
			c-3,5.7-9.1,8.1-12.9,12.8c-1,1.2-2.4,1-3.6,0.6c-1.3-0.4-1-1.7-0.8-2.6c0.4-3.2-1-4.3-4-5.2c-10.6-3.4-21.5-2.9-32.4-2.7
			c-3.7,0.1-4.1,3.7-4.7,6.2c-0.8,3.4,1.2,6,4.2,7.6c7.3,3.9,15.2,6.6,22.9,9.6c8.6,3.3,16.8,7.3,24,13c5.4,4.2,9.3,15.9,7,22.1
			c-1,2.7-3.4,4.6-5.8,6.1c-6,3.6-11.3,8-16.1,13.1c-4.9,5.2-10.9,7.6-18,7.7c-8.1,0.1-16.1-0.2-24-2.2c-6.1-1.6-11.4-4.8-16.1-8.8
			c-1.5-1.3-1.2-3.2,0.2-4.6c4.2-4.3,8.5-8.5,12.7-12.8c1.1-1.1,2.3-1.1,3.5-0.8c1.4,0.3,1.1,1.5,1,2.5c-0.2,2.4,1.1,3.6,3.1,4.4
			c11.5,4.5,23.2,7.7,35.8,4.9c4.1-0.9,4.8-3.1,4.2-7.2c-1.3-8.9-7.7-12.5-14.8-15.3c-11.4-4.6-23.1-8.7-34.4-13.7
			c-6.4-2.8-9.1-4.3-9-13.5c0.3-15.1-2.1-11.8,11.4-18.8c4.6-2.4,8.6-5.9,12.6-9.2c4.3-3.6,8.6-6.5,14.5-5.6
			C1036.5,37,1038.7,36.8,1040.8,36.8z"/>
		<path class="st0" d="M66.6,36.8c9.5-0.5,18.2,0.8,26.9,1.9c2.8,0.3,2.6,2.1,2,3.6c-3.1,8-6.4,15.8-9.6,23.8c-0.6,1.6-1.8,2-3.4,2
			c-2,0-1.6-1.5-2.1-2.6c-4.3-9-10.6-16-20.3-19.1c-6.4-2.1-14.5,1.3-18.4,7.2c-6.7,10.3-9.4,21.7-8.7,33.7c0.4,6.6,4,12.2,7.8,17.5
			c7.8,10.9,18.5,17.3,31.2,20.1c7.8,1.7,15.6,2.4,23.8,0.9c7.8-1.5,15.7-2.5,23.2-5.5c1.1-0.4,2.4-0.5,2.6,1.2
			c0.1,1.2,0.2,2.2-1.5,3c-10.9,5.1-22.2,9.6-34.1,11.5c-10.9,1.8-21.9,2.2-33,0.5c-8.7-1.4-17-3.6-24.7-7.8
			C17,122.3,8.3,113.7,6,100C2.7,80.3,7.4,63,22.3,49.3c6.3-5.8,14.3-8.9,22.7-10.6C52.4,37.3,59.8,36.2,66.6,36.8z"/>
		<path class="st0" d="M827,139.6c-7.6,0-15.2,0-22.7,0c-1.2,0-3.1,0.9-3.4-1.4c-0.3-2,1.5-1.6,2.6-2c8.5-3.4,12.5-9.9,13.7-18.8
			c2.2-15.3,0.4-30.8,1.1-46.1c0.1-1.4-0.2-2.8,0.5-4.2c1.9-3.6-0.3-5.1-3.4-5.4c-6.8-0.5-13.6-0.4-19.3,4.4c-0.3,0.3-0.9,0.4-1,0.7
			c-0.8,2.2-2.6,3.5-4.4,2c-1.7-1.5,0.1-3.4,0.9-5.2c2.6-5.8,3.7-12.1,3.8-18.4c0.1-3.5,1.2-4.3,4.4-4.2c10.7,0.5,21.3,1.3,32,3.1
			c5.4,0.9,10.9,1.6,16.3,2c4.5,0.4,8.9,1.4,13.4,1.5c10.3,0.2,20.2-1.7,29.9-4.8c1.6-0.5,3.5-1.8,4.5,0.1c1.1,2.1-1.1,3.3-2.5,4.3
			c-7,5.3-15.4,7.4-23.6,9.8c-6.5,2-13.4,2.7-20.2,3.4c-1.9,0.2-2.9,1-3.2,2.8c-1.7,8.8-3.9,17.5-4.6,26.5c-0.6,7.1-1,14.2-0.6,21.2
			c0.5,8.4,1.6,16.9,8.1,23.3c0.7,0.7,1.4,1.6,2.3,1.8c1.3,0.3,2.7,0.3,2.3,2.2c-0.4,1.9-2,1.2-3.2,1.2
			C842.7,139.6,834.9,139.6,827,139.6C827,139.6,827,139.6,827,139.6z"/>
		<path class="st0" d="M366.4,206.9c127.1-2.8,254,20.9,381,8.3c75-6.8,150.1-15.4,223-34.6c12.4-2.8,24.7-6.2,37.2-8.5
			c19.4-1.9,39.2-0.8,58.7-1.8c3-0.1,4.5,0.7,4.5,4c-0.1,10.9,0.2,21.7,0.1,32.6c-0.1,6.4-0.8,6.9-7,8.1
			c-122.2,22.6-246.1,42.3-370.7,40.3c-135.2-1.2-267.7-29.9-401.5-46c-1.3-0.2-3.5,0.6-3.5-1.4c0.1-2,2.3-1.1,3.5-1.1
			C316.6,207,341.5,207,366.4,206.9C366.4,207,366.4,207,366.4,206.9z"/>
		<path class="st1" d="M179.8,214.4c-8.3-2.4-16.6-4.7-25-6.9c5.6,3.5,10.9,7.3,17,9.8c89.7,43.4,186.5,69.9,284.8,84.8
			c46.6,8,93.3,15.7,140,22.9c18.2,5,44-21.8,27.1-24.3C473,287.8,325,256.7,179.8,214.4z"/>
		<path class="st2" d="M1073,270.2c-0.2-8.4-0.1-16.9-0.1-25.3c0-14,0.6-13-13.5-11.1c-16.3,2.2-32.5,4.9-48.7,7.3
			c-22,3.3-44.1,6.4-66.1,9.8c-23.7,3.7-47.4,7.7-71.3,9.7c-33.1,2.8-66.2,4.4-99.4,5.1c-30.5,0.6-60.9,0.2-91.4-0.7
			c-31.7-1-63.4-2.9-95-5.2c-16.2-1.2-32.5-2.7-48.7-4.4c-24-2.6-48-5.3-71.9-8.3c-21.8-2.7-43.6-5.8-65.3-8.9
			c-21.6-3.1-43-7.7-64.4-11.8c-29.7-5.7-59.5-10.9-89.1-17.3c-20.7-4.5-41.5-2.3-62.3-2.6c0.4,0.2,0.7,0.4,1.1,0.5
			c14.6,3.9,29.2,7.9,43.9,11.7c35.3,9.3,70.5,19.3,106.1,27.6c36.7,8.5,73.7,15.5,110.8,22c17.3,3,34.6,5.9,52,8.2
			c21.6,2.8,43.3,5.6,65.1,7.3c27.6,2.2,55.2,5,82.8,7.3c24.1,2,48.2,3.8,72.2,5.5c12.7,0.9,25.4,1.3,38.1,1.8
			c25.2,1.1,50.3,1.9,75.5,1.1c24.8-0.8,49.7-2.4,74.5-3.9c14.8-0.9,29.7-2,44.5-3.2c20.1-1.7,40.1-3.6,60.1-6.3
			c18.8-2.5,37.6-5.3,56.1-9.8C1072,275.4,1073.1,273.6,1073,270.2z"/>
	</g>
	<g>
		<path class="st3" d="M296.4,168.4H311v5h-4.8v21.5h-5.1v-21.5h-4.7V168.4z"/>
		<path class="st3" d="M314.8,168.4h5.3c2.9,0,5,0.3,6.3,0.8c1.2,0.5,2.2,1.4,3,2.6c0.8,1.2,1.1,2.6,1.1,4.3c0,1.7-0.4,3.2-1.3,4.4
			c-0.8,1.2-2.1,2.1-3.8,2.7l6.3,11.8h-5.5l-6-11.2h-0.5v11.2h-5V168.4z M319.9,178.8h1.6c1.6,0,2.7-0.2,3.3-0.6
			c0.6-0.4,0.9-1.1,0.9-2.1c0-0.6-0.1-1.1-0.4-1.5c-0.3-0.4-0.7-0.7-1.2-0.9c-0.5-0.2-1.4-0.3-2.8-0.3h-1.4V178.8z"/>
		<path class="st3" d="M344,168.4h5.1l10.2,26.5h-5.2l-2.1-5.5h-10.8l-2.2,5.5h-5.2L344,168.4z M346.6,175.4l-3.6,9.1h7.1
			L346.6,175.4z"/>
		<path class="st3" d="M363.3,168.4h4.8l11.3,17.5v-17.5h5v26.5h-4.9l-11.3-17.4v17.4h-5V168.4z"/>
		<path class="st3" d="M404.5,172l-3.7,3.3c-1.3-1.8-2.6-2.7-4-2.7c-0.7,0-1.2,0.2-1.6,0.5c-0.4,0.4-0.6,0.8-0.6,1.2
			s0.2,0.9,0.5,1.3c0.4,0.5,1.6,1.7,3.7,3.4c1.9,1.6,3.1,2.6,3.5,3c1,1,1.7,2,2.2,3c0.4,0.9,0.6,2,0.6,3.1c0,2.2-0.8,4-2.3,5.4
			c-1.5,1.4-3.5,2.1-5.9,2.1c-1.9,0-3.5-0.5-4.9-1.4c-1.4-0.9-2.6-2.4-3.6-4.4l4.2-2.6c1.3,2.3,2.7,3.5,4.4,3.5
			c0.9,0,1.6-0.3,2.2-0.8s0.9-1.1,0.9-1.7c0-0.6-0.2-1.2-0.7-1.8c-0.4-0.6-1.4-1.5-2.9-2.8c-2.9-2.4-4.8-4.2-5.6-5.5
			c-0.8-1.3-1.3-2.6-1.3-3.8c0-1.8,0.7-3.4,2.1-4.7c1.4-1.3,3.1-2,5.2-2c1.3,0,2.6,0.3,3.8,0.9C401.8,169.3,403.1,170.4,404.5,172z"
			/>
		<path class="st3" d="M409.7,168.4h5.4c2.9,0,5,0.3,6.3,0.8c1.3,0.5,2.3,1.4,3,2.6c0.7,1.2,1.1,2.6,1.1,4.3c0,1.9-0.5,3.4-1.5,4.6
			c-1,1.2-2.3,2.1-3.9,2.6c-1,0.3-2.7,0.4-5.3,0.4v11.2h-5V168.4z M414.8,178.8h1.6c1.3,0,2.1-0.1,2.6-0.3c0.5-0.2,0.9-0.5,1.2-0.9
			c0.3-0.4,0.4-0.9,0.4-1.5c0-1-0.4-1.8-1.2-2.2c-0.6-0.3-1.6-0.5-3.2-0.5h-1.4V178.8z"/>
		<path class="st3" d="M443,167.7c3.8,0,7,1.4,9.7,4.1s4.1,6,4.1,9.9c0,3.9-1.3,7.1-4,9.8c-2.7,2.7-5.9,4-9.7,4
			c-4,0-7.3-1.4-9.9-4.1c-2.6-2.8-4-6-4-9.8c0-2.5,0.6-4.9,1.8-7s2.9-3.8,5.1-5.1C438.2,168.3,440.5,167.7,443,167.7z M442.9,172.7
			c-2.5,0-4.5,0.9-6.2,2.6c-1.7,1.7-2.5,3.9-2.5,6.5c0,2.9,1.1,5.3,3.2,7c1.6,1.3,3.5,2,5.6,2c2.4,0,4.4-0.9,6.1-2.6
			c1.7-1.7,2.5-3.9,2.5-6.4c0-2.5-0.8-4.7-2.5-6.4C447.4,173.5,445.3,172.7,442.9,172.7z"/>
		<path class="st3" d="M461.8,168.4h5.3c2.9,0,5,0.3,6.3,0.8c1.2,0.5,2.2,1.4,3,2.6c0.8,1.2,1.1,2.6,1.1,4.3c0,1.7-0.4,3.2-1.3,4.4
			c-0.8,1.2-2.1,2.1-3.8,2.7l6.3,11.8h-5.5l-6-11.2h-0.5v11.2h-5V168.4z M466.8,178.8h1.6c1.6,0,2.7-0.2,3.3-0.6
			c0.6-0.4,0.9-1.1,0.9-2.1c0-0.6-0.1-1.1-0.4-1.5c-0.3-0.4-0.7-0.7-1.2-0.9c-0.5-0.2-1.4-0.3-2.8-0.3h-1.4V178.8z"/>
		<path class="st3" d="M480.3,168.4h14.7v5h-4.8v21.5H485v-21.5h-4.7V168.4z"/>
		<path class="st3" d="M498.4,168.4h14.5v4.9h-9.5v4.8h9.5v4.8h-9.5v7h9.5v5h-14.5V168.4z"/>
		<path class="st3" d="M552.3,173l-3.5,3.4c-2.4-2.5-5.1-3.8-8.1-3.8c-2.5,0-4.7,0.9-6.4,2.6c-1.7,1.7-2.6,3.9-2.6,6.4
			c0,1.8,0.4,3.3,1.2,4.7s1.9,2.4,3.3,3.2c1.4,0.8,3,1.2,4.7,1.2c1.5,0,2.8-0.3,4-0.8c1.2-0.5,2.5-1.5,4-3l3.4,3.6
			c-2,1.9-3.8,3.2-5.6,4c-1.7,0.7-3.7,1.1-6,1.1c-4.1,0-7.5-1.3-10.1-3.9c-2.6-2.6-3.9-6-3.9-10.1c0-2.6,0.6-5,1.8-7
			c1.2-2.1,2.9-3.7,5.1-5c2.2-1.3,4.6-1.9,7.2-1.9c2.2,0,4.3,0.5,6.3,1.4C549.1,170,550.8,171.3,552.3,173z"/>
		<path class="st3" d="M569.2,167.7c3.8,0,7,1.4,9.7,4.1c2.7,2.7,4.1,6,4.1,9.9c0,3.9-1.3,7.1-4,9.8c-2.7,2.7-5.9,4-9.7,4
			c-4,0-7.3-1.4-9.9-4.1s-4-6-4-9.8c0-2.5,0.6-4.9,1.8-7s2.9-3.8,5.1-5.1C564.4,168.3,566.7,167.7,569.2,167.7z M569.2,172.7
			c-2.5,0-4.5,0.9-6.2,2.6c-1.7,1.7-2.5,3.9-2.5,6.5c0,2.9,1.1,5.3,3.2,7c1.6,1.3,3.5,2,5.6,2c2.4,0,4.4-0.9,6.1-2.6
			c1.7-1.7,2.5-3.9,2.5-6.4c0-2.5-0.8-4.7-2.5-6.4C573.7,173.5,571.6,172.7,569.2,172.7z"/>
		<path class="st3" d="M587.7,168.4h4.8l11.3,17.5v-17.5h5v26.5h-4.9l-11.3-17.4v17.4h-5V168.4z"/>
		<path class="st3" d="M649.7,173l-3.5,3.4c-2.4-2.5-5.1-3.8-8.1-3.8c-2.5,0-4.7,0.9-6.4,2.6c-1.7,1.7-2.6,3.9-2.6,6.4
			c0,1.8,0.4,3.3,1.2,4.7c0.8,1.4,1.9,2.4,3.3,3.2c1.4,0.8,3,1.2,4.7,1.2c1.5,0,2.8-0.3,4-0.8c1.2-0.5,2.5-1.5,4-3l3.4,3.6
			c-2,1.9-3.8,3.2-5.6,4c-1.7,0.7-3.7,1.1-6,1.1c-4.1,0-7.5-1.3-10.1-3.9c-2.6-2.6-3.9-6-3.9-10.1c0-2.6,0.6-5,1.8-7
			c1.2-2.1,2.9-3.7,5.1-5c2.2-1.3,4.6-1.9,7.2-1.9c2.2,0,4.3,0.5,6.3,1.4C646.5,170,648.3,171.3,649.7,173z"/>
		<path class="st3" d="M662.2,168.4h5.1l10.2,26.5h-5.2l-2.1-5.5h-10.8l-2.2,5.5H652L662.2,168.4z M664.8,175.4l-3.6,9.1h7.1
			L664.8,175.4z"/>
		<path class="st3" d="M681.5,168.4h5v21.7h7.4v4.8h-12.4V168.4z"/>
		<path class="st3" d="M697.3,168.4h5v26.5h-5V168.4z"/>
		<path class="st3" d="M708.1,168.4h6c3.9,0,6.7,0.5,8.6,1.4c1.9,1,3.4,2.5,4.6,4.7c1.2,2.2,1.8,4.7,1.8,7.5c0,2-0.3,3.9-1,5.6
			c-0.7,1.7-1.6,3.1-2.8,4.3c-1.2,1.1-2.5,1.9-3.9,2.3s-3.8,0.6-7.2,0.6h-6.1V168.4z M713.1,173.3V190h2.3c2.3,0,4-0.3,5-0.8
			c1-0.5,1.9-1.4,2.6-2.7c0.7-1.3,1-2.8,1-4.6c0-2.8-0.8-5-2.4-6.6c-1.4-1.4-3.7-2.1-6.8-2.1H713.1z"/>
		<path class="st3" d="M742,168.4h5.1l10.2,26.5h-5.2l-2.1-5.5h-10.8l-2.2,5.5h-5.2L742,168.4z M744.6,175.4l-3.6,9.1h7.1
			L744.6,175.4z"/>
		<path class="st3" d="M761.2,168.4h6c3.9,0,6.7,0.5,8.6,1.4c1.9,1,3.4,2.5,4.6,4.7c1.2,2.2,1.8,4.7,1.8,7.5c0,2-0.3,3.9-1,5.6
			c-0.7,1.7-1.6,3.1-2.8,4.3c-1.2,1.1-2.5,1.9-3.9,2.3s-3.8,0.6-7.2,0.6h-6.1V168.4z M766.2,173.3V190h2.3c2.3,0,4-0.3,5-0.8
			c1-0.5,1.9-1.4,2.6-2.7c0.7-1.3,1-2.8,1-4.6c0-2.8-0.8-5-2.4-6.6c-1.4-1.4-3.7-2.1-6.8-2.1H766.2z"/>
	</g>
</g>
</svg>
